nColumns=19
nRows=82
DataType=double
version=3
OpenSimVersion=4.1
endheader
time	ground_force_1_vx	ground_force_1_vy	ground_force_1_vz	ground_force_1_px	ground_force_1_py	ground_force_1_pz	ground_force_1_mx	ground_force_1_my	ground_force_1_mz	ground_force_2_vx	ground_force_2_vy	ground_force_2_vz	ground_force_2_px	ground_force_2_py	ground_force_2_pz	ground_force_2_mx	ground_force_2_my	ground_force_2_mz
0	-39.7176	279.309	8.74592	0.152921	0.006	-0.145635	0	0.93277	0	0	0	0	0.698887	0	-0.254943	0	0	0
0.01	-49.0457	308.015	6.95859	0.15736	0.006	-0.145496	0	0.850178	0	0	0	0	0.698887	0	-0.254943	0	0	0
0.02	-58.9199	340.024	4.59114	0.16258	0.006	-0.145285	0	0.76999	0	0	0	0	0.698887	0	-0.254943	0	0	0
0.03	-69.009	374.562	1.62835	0.167691	0.006	-0.145038	0	0.696959	0	0	0	0	0.698887	0	-0.254943	0	0	0
0.04	-78.9841	410.735	-1.86446	0.172617	0.006	-0.144781	0	0.6367	0	0	0	0	0.698887	0	-0.254943	0	0	0
0.05	-88.5435	447.728	-5.74496	0.177307	0.006	-0.144543	0	0.595337	0	0	0	0	0.698887	0	-0.254943	0	0	0
0.06	-97.4175	484.874	-9.82359	0.181719	0.006	-0.144352	0	0.576085	0	0	0	0	0.698887	0	-0.254943	0	0	0
0.07	-105.368	521.59	-13.9019	0.185821	0.006	-0.144227	0	0.576696	0	0	0	0	0.698887	0	-0.254943	0	0	0
0.08	-112.177	557.24	-17.786	0.189581	0.006	-0.144182	0	0.591016	0	0	0	0	0.698887	0	-0.254943	0	0	0
0.09	-117.641	591.052	-21.2899	0.192978	0.006	-0.144222	0	0.611539	0	0	0	0	0.698887	0	-0.254943	0	0	0
0.1	-121.587	622.158	-24.2633	0.196005	0.006	-0.144343	0	0.629633	0	0	0	0	0.698887	0	-0.254943	0	0	0
0.11	-123.891	649.686	-26.6248	0.19867	0.006	-0.14453	0	0.6357	0	0	0	0	0.698887	0	-0.254943	0	0	0
0.12	-124.497	672.86	-28.3599	0.201	0.006	-0.144763	0	0.621615	0	0	0	0	0.698887	0	-0.254943	0	0	0
0.13	-123.435	691.087	-29.5043	0.203033	0.006	-0.145019	0	0.582167	0	0	0	0	0.698887	0	-0.254943	0	0	0
0.14	-120.815	704.018	-30.1304	0.20482	0.006	-0.145274	0	0.514954	0	0	0	0	0.698887	0	-0.254943	0	0	0
0.15	-116.815	711.577	-30.3285	0.206414	0.006	-0.145506	0	0.420133	0	0	0	0	0.698887	0	-0.254943	0	0	0
0.16	-111.648	713.938	-30.1937	0.20787	0.006	-0.145695	0	0.299782	0	0	0	0	0.698887	0	-0.254943	0	0	0
0.17	-105.549	711.48	-29.8174	0.209241	0.006	-0.145821	0	0.157231	0	0	0	0	0.698887	0	-0.254943	0	0	0
0.18	-98.7532	704.726	-29.2816	0.210576	0.006	-0.14587	0	-0.003619	0	0	0	0	0.698887	0	-0.254943	0	0	0
0.19	-91.4811	694.284	-28.6548	0.211919	0.006	-0.145827	0	-0.179078	0	0	0	0	0.698887	0	-0.254943	0	0	0
0.2	-83.9337	680.81	-27.9906	0.213313	0.006	-0.145679	0	-0.366127	0	0	0	0	0.698887	0	-0.254943	0	0	0
0.21	-76.2924	664.974	-27.3286	0.214796	0.006	-0.145414	0	-0.562545	0	0	0	0	0.698887	0	-0.254943	0	0	0
0.22	-68.7206	647.447	-26.696	0.216408	0.006	-0.145022	0	-0.766724	0	0	0	0	0.698887	0	-0.254943	0	0	0
0.23	-61.3611	628.896	-26.1097	0.218186	0.006	-0.144495	0	-0.977148	0	0	0	0	0.698887	0	-0.254943	0	0	0
0.24	-54.3323	609.974	-25.5817	0.220168	0.006	-0.143826	0	-1.19176	0	0	0	0	0.698887	0	-0.254943	0	0	0
0.25	-47.7266	591.312	-25.1241	0.222385	0.006	-0.143008	0	-1.40751	0	0	0	0	0.698887	0	-0.254943	0	0	0
0.26	-41.6096	573.498	-24.7486	0.224866	0.006	-0.14204	0	-1.62034	0	0	0	0	0.698887	0	-0.254943	0	0	0
0.27	-36.0219	557.048	-24.4679	0.227627	0.006	-0.140919	0	-1.82543	0	0	0	0	0.698887	0	-0.254943	0	0	0
0.28	-30.9817	542.382	-24.2981	0.230674	0.006	-0.139648	0	-2.01773	0	0	0	0	0.698887	0	-0.254943	0	0	0
0.29	-26.487	529.813	-24.262	0.233997	0.006	-0.138232	0	-2.19248	0	0	0	0	0.698887	0	-0.254943	0	0	0
0.3	-22.5164	519.551	-24.3882	0.237569	0.006	-0.136677	0	-2.3455	0	0	0	0	0.698887	0	-0.254943	0	0	0
0.31	-19.0324	511.709	-24.7063	0.24135	0.006	-0.134996	0	-2.47348	0	0	0	0	0.698887	0	-0.254943	0	0	0
0.32	-15.9825	506.312	-25.2402	0.245283	0.006	-0.133209	0	-2.57417	0	0	0	0	0.698887	0	-0.254943	0	0	0
0.33	-13.3015	503.311	-26.0016	0.249302	0.006	-0.131339	0	-2.64647	0	0	0	0	0.698887	0	-0.254943	0	0	0
0.34	-10.9135	502.597	-26.9873	0.253337	0.006	-0.129418	0	-2.69048	0	0	0	0	0.698887	0	-0.254943	0	0	0
0.35	-8.7355	504.006	-28.1782	0.257319	0.006	-0.127478	0	-2.70749	0	0	0	0	0.698887	0	-0.254943	0	0	0
0.36	-6.68456	507.332	-29.5426	0.261187	0.006	-0.125555	0	-2.69995	0	0	0	0	0.698887	0	-0.254943	0	0	0
0.37	-4.68281	512.331	-31.0403	0.26489	0.006	-0.123681	0	-2.67144	0	0	0	0	0.698887	0	-0.254943	0	0	0
0.38	-2.65891	518.728	-32.6288	0.268392	0.006	-0.121885	0	-2.62636	0	0	0	0	0.698887	0	-0.254943	0	0	0
0.39	-0.54759	526.234	-34.2661	0.271669	0.006	-0.120189	0	-2.5697	0	0	0	0	0.698887	0	-0.254943	0	0	0
0.4	1.7102	534.557	-35.9136	0.274712	0.006	-0.118612	0	-2.5065	0	0	0	0	0.698887	0	-0.254943	0	0	0
0.41	4.16517	543.412	-37.537	0.277522	0.006	-0.117164	0	-2.44163	0	0	0	0	0.698887	0	-0.254943	0	0	0
0.42	6.85805	552.523	-39.1058	0.28011	0.006	-0.115852	0	-2.37961	0	0	0	0	0.698887	0	-0.254943	0	0	0
0.43	9.81936	561.622	-40.5929	0.282495	0.006	-0.114677	0	-2.3245	0	0	0	0	0.698887	0	-0.254943	0	0	0
0.44	13.0706	570.462	-41.9758	0.284696	0.006	-0.113636	0	-2.2796	0	0	0	0	0.698887	0	-0.254943	0	0	0
0.45	16.6241	578.818	-43.2378	0.286739	0.006	-0.112726	0	-2.2472	0	0	0	0	0.698887	0	-0.254943	0	0	0
0.46	20.4827	586.493	-44.3685	0.288648	0.006	-0.111939	0	-2.22839	0	0	0	0	0.698887	0	-0.254943	0	0	0
0.47	24.6411	593.321	-45.3618	0.290448	0.006	-0.111268	0	-2.2231	0	0	0	0	0.698887	0	-0.254943	0	0	0
0.48	29.0874	599.172	-46.2118	0.292164	0.006	-0.110707	0	-2.23046	0	0	0	0	0.698887	0	-0.254943	0	0	0
0.49	33.8	603.945	-46.9072	0.293817	0.006	-0.110249	0	-2.24937	0	0	0	0	0.698887	0	-0.254943	0	0	0
0.5	38.7466	607.571	-47.4299	0.295425	0.006	-0.109889	0	-2.27859	0	0	0	0	0.698887	0	-0.254943	0	0	0
0.51	43.8845	609.992	-47.7591	0.297004	0.006	-0.109621	0	-2.31647	0	0	0	0	0.698887	0	-0.254943	0	0	0
0.52	49.1604	611.159	-47.8773	0.298565	0.006	-0.10944	0	-2.36059	0	0	0	0	0.698887	0	-0.254943	0	0	0
0.53	54.5111	611.012	-47.7738	0.300119	0.006	-0.109342	0	-2.40759	0	0	0	0	0.698887	0	-0.254943	0	0	0
0.54	59.8642	609.465	-47.445	0.301672	0.006	-0.109319	0	-2.45312	0	0	0	0	0.698887	0	-0.254943	0	0	0
0.55	65.138	606.396	-46.8913	0.303229	0.006	-0.109365	0	-2.49242	0	0	0	0	0.698887	0	-0.254943	0	0	0
0.56	70.2398	601.63	-46.1128	0.304793	0.006	-0.109475	0	-2.52102	0	0	0	0	0.698887	0	-0.254943	0	0	0
0.57	75.0645	594.943	-45.1072	0.306366	0.006	-0.10964	0	-2.53519	0	0	0	0	0.698887	0	-0.254943	0	0	0
0.58	79.4923	586.067	-43.8694	0.307953	0.006	-0.109854	0	-2.53227	0	-3.04347	22.5056	-2.91581	0.698887	0.006	-0.254943	0	0.238027	0
0.59	83.3891	574.709	-42.3928	0.309561	0.006	-0.110113	0	-2.51079	0	-6.08436	43.1498	-2.78052	0.747056	0.006	-0.27158	0	0.370509	0
0.6	86.6087	560.573	-40.6721	0.3112	0.006	-0.110412	0	-2.47035	0	-10.0975	69.0782	-2.54885	0.770244	0.006	-0.279067	0	0.406738	0
0.61	89.0005	543.39	-38.7057	0.312886	0.006	-0.110747	0	-2.41145	0	-15.1953	100.587	-2.197	0.783707	0.006	-0.283033	0	0.402576	0
0.62	90.4184	522.951	-36.4999	0.314636	0.006	-0.111117	0	-2.33521	0	-21.4593	137.68	-1.6989	0.79283	0.006	-0.285431	0	0.371923	0
0.63	90.7324	499.145	-34.0716	0.316472	0.006	-0.11152	0	-2.24308	0	-28.9393	179.998	-1.0215	0.799713	0.006	-0.287014	0	0.318799	0
0.64	89.8404	472.003	-31.4492	0.318416	0.006	-0.111953	0	-2.13683	0	-37.6069	226.829	-0.121633	0.805333	0.006	-0.288131	0	0.244311	0
0.65	87.6817	441.73	-28.6729	0.320494	0.006	-0.112418	0	-2.01863	0	-47.2683	277.183	1.05454	0.810187	0.006	-0.288973	0	0.14962	0
0.66	84.2515	408.715	-25.7928	0.322734	0.006	-0.112916	0	-1.89085	0	-57.5674	329.81	2.56517	0.814536	0.006	-0.289648	0	0.037485	0
0.67	79.6107	373.516	-22.8677	0.325162	0.006	-0.113446	0	-1.75582	0	-68.0536	383.227	4.45117	0.818516	0.006	-0.290221	0	-0.087794	0
0.68	73.8877	336.816	-19.9621	0.327806	0.006	-0.114011	0	-1.61575	0	-78.2344	435.839	6.70729	0.8222	0.006	-0.290726	0	-0.222009	0
0.69	67.2712	299.366	-17.1427	0.330695	0.006	-0.114608	0	-1.47243	0	-87.6288	486.138	9.26554	0.825625	0.006	-0.291184	0	-0.36192	0
0.7	59.996	261.923	-14.4747	0.333861	0.006	-0.115235	0	-1.32714	0	-95.835	532.868	12.013	0.828817	0.006	-0.291604	0	-0.503566	0
0.71	52.3257	225.223	-12.0144	0.337345	0.006	-0.115883	0	-1.18077	0	-102.566	575.081	14.8209	0.831795	0.006	-0.291995	0	-0.64084	0
0.72	44.5318	189.963	-9.79999	0.341208	0.006	-0.116544	0	-1.03437	0	-107.649	612.098	17.5569	0.834575	0.006	-0.292365	0	-0.766526	0
0.73	36.8754	156.776	-7.8478	0.345549	0.006	-0.11721	0	-0.889521	0	-111.009	643.459	20.095	0.837174	0.006	-0.292722	0	-0.873043	0
0.74	29.5917	126.198	-6.15421	0.350538	0.006	-0.117871	0	-0.748522	0	-112.653	668.886	22.3362	0.83961	0.006	-0.293075	0	-0.952739	0
0.75	22.8794	98.6422	-4.70156	0.356478	0.006	-0.118521	0	-0.614086	0	-112.653	688.275	24.2215	0.841901	0.006	-0.293434	0	-0.998925	0
0.76	16.896	74.3795	-3.46442	0.363922	0.006	-0.119151	0	-0.48888	0	-111.133	701.696	25.733	0.844068	0.006	-0.293812	0	-1.00661	0
0.77	11.7489	53.5359	-2.41524	0.373965	0.006	-0.119752	0	-0.375533	0	-108.25	709.4	26.8871	0.846127	0.006	-0.294221	0	-0.973039	0
0.78	7.48475	36.0991	-1.53044	0.389039	0.006	-0.120308	0	-0.276893	0	-104.19	711.805	27.7203	0.848096	0.006	-0.294672	0	-0.898029	0
0.79	4.08422	21.9352	-0.795506	0.415756	0.006	-0.120754	0	-0.197011	0	-99.1614	709.478	28.2747	0.849993	0.006	-0.295175	0	-0.78356	0
0.8	0	0	0	0.440485	0	-0.121983	0	0	0	-93.3756	703.093	28.5892	0.851836	0.006	-0.295735	0	-0.633347	0
0.81	0	0	0	0.463609	0	-0.123313	0	0	0	-87.0398	693.392	28.6978	0.853641	0.006	-0.296359	0	-0.45249	0
